<svg xmlns="http://www.w3.org/2000/svg" viewBox="0 0 24 24" fill="currentColor"><path d="M12 2C6.48 2 2 6.58 2 12.26c0 4.51 2.87 8.33 6.84 9.68.5.1.68-.22.68-.49 0-.24-.01-.87-.01-1.71-2.78.62-3.37-1.37-3.37-1.37-.45-1.17-1.11-1.48-1.11-1.48-.9-.63.07-.62.07-.62 1 .07 1.52 1.05 1.52 1.05.89 1.56 2.34 1.11 2.91.85.09-.66.35-1.11.63-1.36-2.22-.26-4.56-1.14-4.56-5.07 0-1.12.39-2.04 1.03-2.77-.1-.26-.45-1.29.1-2.68 0 0 .85-.28 2.8 1.06a9.39 9.39 0 0 1 5.1 0c1.95-1.34 2.8-1.06 2.8-1.06.55 1.39.2 2.42.1 2.68.64.73 1.03 1.65 1.03 2.77 0 3.94-2.34 4.81-4.57 5.07.36.32.68.95.68 1.92 0 1.38-.01 2.48-.01 2.82 0 .27.18.59.68.49A10.03 10.03 0 0 0 22 12.26C22 6.58 17.52 2 12 2Z"/></svg>